<svg id="Layer_1" data-name="Layer 1" xmlns="http://www.w3.org/2000/svg" viewBox="0 0 50 50"><defs><style>.cls-1{fill:#00e677;opacity:0.4;}.cls-2{fill:#006341;}.cls-3{fill:#00643c;}</style></defs><path class="cls-1" d="M38.5,15.44V41.56a2,2,0,0,1-2,1.94h-18a2,2,0,0,1-2-1.94V15.44a2,2,0,0,1,2-1.94h18A2,2,0,0,1,38.5,15.44Z"/><rect class="cls-2" x="16.5" y="14.53" width="14" height="1.93"/><rect class="cls-2" x="16.5" y="18.53" width="14" height="1.93"/><path class="cls-3" d="M31.5,9.5a1,1,0,0,1,1,1v25a1,1,0,0,1-1,1h-16a1,1,0,0,1-1-1v-25a1,1,0,0,1,1-1h16m0-2h-16a3,3,0,0,0-3,3v25a3,3,0,0,0,3,3h16a3,3,0,0,0,3-3v-25a3,3,0,0,0-3-3Z"/></svg>