<svg id="Layer_1" data-name="Layer 1" xmlns="http://www.w3.org/2000/svg" viewBox="0 0 50 50"><defs><style>.cls-1{fill:#00e677;opacity:0.4;}.cls-2{fill:#006341;}</style></defs><path class="cls-1" d="M39.18,11.74a20.06,20.06,0,0,0-28.36,0L25,25.92Z"/><path class="cls-2" d="M30,39.13H20V32.87a10.5,10.5,0,1,1,10,0Zm-8-2h6V31.62l.58-.27a8.5,8.5,0,1,0-7.16,0l.58.27Z"/><path class="cls-2" d="M25.71,44.13H24.29A4.29,4.29,0,0,1,20,39.84V37.13H30v2.71A4.3,4.3,0,0,1,25.71,44.13Zm-3.71-5v.71a2.29,2.29,0,0,0,2.29,2.29h1.42A2.29,2.29,0,0,0,28,39.84v-.71Z"/><rect class="cls-2" x="29" y="37.13" width="0.25" height="2"/><rect class="cls-2" x="20.25" y="37.13" width="0.75" height="2"/></svg>