<svg id="Layer_1" data-name="Layer 1" xmlns="http://www.w3.org/2000/svg" viewBox="0 0 50 50"><defs><style>.cls-1{fill:#00e677;opacity:0.4;}.cls-2,.cls-3{fill:none;stroke:#00643c;stroke-miterlimit:10;stroke-width:2px;}.cls-3{stroke-linecap:round;}</style></defs><circle class="cls-1" cx="23.25" cy="15.5" r="9"/><path class="cls-2" d="M20.48,30.18v-.41q0-7.2,0-14.41a2.67,2.67,0,0,1,1.05-2.3,2.45,2.45,0,0,1,2.54-.31,2.33,2.33,0,0,1,1.53,2.08c.07,1.34.06,4.3.06,4.48a2.67,2.67,0,0,1,2.17-.16,2.58,2.58,0,0,1,1.54,1.56,2.59,2.59,0,0,1,2.24-.3,2.53,2.53,0,0,1,1.6,1.51,8.59,8.59,0,0,1,1.23-.32,2.51,2.51,0,0,1,2.78,2.28,5.79,5.79,0,0,1,0,.72c0,3.43,0,6.85,0,10.28a8.6,8.6,0,0,1-.5,3,8.18,8.18,0,0,1-5.9,5.3,9.14,9.14,0,0,1-6-.57,10.34,10.34,0,0,1-3.29-2.3l-8-8a2.48,2.48,0,0,1,2.09-4.29,5.3,5.3,0,0,1,1.4.44c1,.48,2.05,1,3.08,1.53Z"/><line class="cls-3" x1="25.61" y1="14.53" x2="25.61" y2="28.52"/><line class="cls-3" x1="29.61" y1="21.52" x2="29.61" y2="28.52"/><line class="cls-3" x1="33.6" y1="22.3" x2="33.6" y2="28.52"/></svg>