<svg id="Layer_1" data-name="Layer 1" xmlns="http://www.w3.org/2000/svg" viewBox="0 0 50 50"><defs><style>.cls-1{opacity:0.4;}.cls-2{fill:#00e677;}.cls-3{fill:#006341;}.cls-4{fill:#00643c;}</style></defs><g class="cls-1"><rect class="cls-2" x="20" y="11" width="18" height="33" rx="3"/></g><circle class="cls-3" cx="23" cy="36" r="2"/><path class="cls-4" d="M31,8a1,1,0,0,1,1,1V39a1,1,0,0,1-1,1H15a1,1,0,0,1-1-1V9a1,1,0,0,1,1-1H31m0-2H15a3,3,0,0,0-3,3V39a3,3,0,0,0,3,3H31a3,3,0,0,0,3-3V9a3,3,0,0,0-3-3Z"/></svg>