<svg id="Layer_1" data-name="Layer 1" xmlns="http://www.w3.org/2000/svg" viewBox="0 0 511 200"><defs><style>.cls-1{fill:#006341;}.cls-2{fill:#fff;}.cls-3{fill:#00e677;}</style></defs><rect class="cls-1" width="511" height="200"/><path class="cls-2" d="M47.36,59.25h31.3c19.54,0,34.23,15.54,34.23,36.49v2.48c0,20.83-14.69,36.49-34.23,36.49H47.36Zm32,60.24c11.55,0,18.14-9.5,18.14-20.62V95.09c0-11.12-6.59-20.62-18.14-20.62H62.58v45Z"/><path class="cls-2" d="M119.15,62.92a7.94,7.94,0,1,1,15.87,0,7.94,7.94,0,0,1-15.87,0Zm.64,17.16h14.36v54.63H119.79Z"/><path class="cls-2" d="M200.22,80.19v49.34c0,19.43-14.25,31.3-33.79,31.41-8.1,0-17.49-2.37-24.51-7l7.24-12c7.45,4.86,18.67,6.37,25.15,3.56,5.83-1.4,11.55-6.26,11.55-16.08v-.54a24,24,0,0,1-18.13,6.91c-16.74-.33-27.64-13.5-27.64-28.29,0-15.76,12-28.61,27.64-28.61a26.69,26.69,0,0,1,18.13,6.7v-5.4Zm-16,27.31a14.92,14.92,0,0,0-14.79-15,15.06,15.06,0,1,0,0,30.12A15,15,0,0,0,184.24,107.5Z"/><path class="cls-2" d="M208.75,62.92a7.94,7.94,0,1,1,15.87,0,7.94,7.94,0,0,1-15.87,0Zm.64,17.16h14.36v54.63H209.39Z"/><path class="cls-3" d="M229.69,125.42l7.23-13.28c6.81,4.43,15,7.78,23.43,8.32,6.59.32,14.36-1.19,14.79-6.26.22-3.67-3.89-7.67-15.65-9.61-16.63-3.56-28.83-10.37-27.75-24.83,1.41-14.79,14.58-21.38,28.61-21.05a44.08,44.08,0,0,1,28.18,10.14l-8.1,12.31c-3.56-3.24-10.47-6.91-20.08-7.56-6.37-.32-13.17,2.16-13.17,6.91-.22,5,7,7.34,15.11,9.07,20,4.75,29.91,12.31,28.61,25-1.51,13.92-15.65,21.37-30.66,20.94C250.2,135.46,238.76,131.68,229.69,125.42Z"/><path class="cls-3" d="M328.58,106.64l22.67,28.07H334.08l-16.73-21.16H313v21.16H298.78V59.35H313V99.62h4.86L334,80.08h17.28Z"/><path class="cls-3" d="M354.38,62.92a7.94,7.94,0,1,1,15.87,0,7.94,7.94,0,0,1-15.87,0ZM355,80.08h14.36v54.63H355Z"/><path class="cls-3" d="M377.26,59.35h14.36v75.36H377.26Z"/><path class="cls-3" d="M400,59.35H414.4v75.36H400Z"/><path class="cls-3" d="M420.23,128.34l5.61-11a37.92,37.92,0,0,0,18.68,6c5.83.33,10.25-1,10.36-4.32.11-2.8-4.32-5.07-10.69-5.93-19-3.46-22.67-10.91-22.13-18.46,1-9.83,11.23-15.87,23.86-15.87,9,0,16.63,3.13,20.3,5.61l-4.54,10.9C459.2,93.79,451,91,445.6,90.88s-9.18,1.51-9.18,5.18c0,2.81,4.32,4.43,12.63,5.83,16.63,2.91,20.95,10.58,20.08,18.24-1.08,10.37-12.52,16.09-24.72,15.66A43.9,43.9,0,0,1,420.23,128.34Z"/></svg>